<svg xmlns="http://www.w3.org/2000/svg" version="1.1" xmlns:xlink="http://www.w3.org/1999/xlink" xmlns:svgjs="http://svgjs.dev/svgjs" width="1500" height="1500" viewBox="0 0 1500 1500"><rect width="1500" height="1500" fill="#3a4355"></rect><g transform="matrix(0.6666666666666666,0,0,0.6666666666666666,250.00011477487288,187.66666666666674)"><svg viewBox="0 0 320 360" data-background-color="#3a4355" preserveAspectRatio="xMidYMid meet" height="1687" width="1500" xmlns="http://www.w3.org/2000/svg" xmlns:xlink="http://www.w3.org/1999/xlink"><g id="tight-bounds" transform="matrix(1,0,0,1,-0.00003672795929787753,0)"><svg viewBox="0 0 320 360" height="360" width="320"><g><svg></svg></g><g><svg viewBox="0 0 320 360" height="360" width="320"><g><path transform="translate(-32.1528,-12.1528) scale(3.84303,3.84303)" d="M88.492 50l1.711-2.963c2.946-5.102 1.198-11.626-3.904-14.572l-2.963-1.711v-3.422c0-5.891-4.776-10.667-10.667-10.667h-3.422l-1.711-2.963c-2.946-5.102-9.47-6.85-14.572-3.904l-2.964 1.71-2.963-1.711c-5.102-2.945-11.626-1.197-14.572 3.905l-1.711 2.963h-3.422c-5.891 0-10.667 4.776-10.667 10.667v3.422l-2.963 1.711c-5.102 2.946-6.85 9.47-3.904 14.572l1.71 2.963-1.711 2.963c-2.945 5.102-1.197 11.626 3.905 14.572l2.963 1.711v3.422c0 5.891 4.776 10.667 10.667 10.667h3.422l1.711 2.963c2.946 5.102 9.47 6.85 14.572 3.904l2.963-1.71 2.963 1.711c5.102 2.946 11.626 1.198 14.572-3.904l1.711-2.963h3.422c5.891 0 10.667-4.776 10.667-10.667v-3.422l2.963-1.711c5.102-2.946 6.85-9.47 3.904-14.572zM85.832 33.273c2.252 1.3 3.862 3.399 4.535 5.91 0.673 2.511 0.328 5.135-0.972 7.386l-1.441 2.497-4.618-7.999v-9.236zM73.72 73.72l-15.038 8.682h-17.364l-15.038-8.682-8.682-15.038v-17.364l8.682-15.038 15.038-8.682h17.364l15.038 8.682 8.682 15.038v17.364zM82.401 60.549v8.158l-7.065 4.079zM72.786 75.336l-4.079 7.065h-8.158zM57.065 83.335l-7.065 4.079-7.065-4.079zM39.451 82.401h-8.158l-4.079-7.065zM24.664 72.786l-7.065-4.079v-8.158zM16.665 57.065l-4.079-7.065 4.079-7.065zM17.599 39.451v-8.158l7.065-4.079zM27.214 24.664l4.079-7.065h8.158zM42.935 16.665l7.065-4.079 7.065 4.079zM60.549 17.599h8.158l4.079 7.065zM75.336 27.214l7.065 4.079v8.158zM83.335 42.935l4.079 7.065-4.079 7.065zM72.668 17.599c2.6 0 5.044 1.012 6.883 2.851 1.838 1.838 2.851 4.283 2.851 6.883v2.883l-7.999-4.618-4.618-7.999zM53.43 10.606c2.252-1.3 4.875-1.645 7.386-0.972 2.511 0.673 4.61 2.284 5.91 4.535l1.441 2.497h-9.236l-7.999-4.618zM33.273 14.168c1.3-2.252 3.399-3.862 5.91-4.535 2.511-0.673 5.135-0.328 7.386 0.972l2.497 1.441-7.999 4.618h-9.236zM17.599 27.332c0-2.6 1.012-5.044 2.851-6.883 1.838-1.838 4.283-2.851 6.883-2.851h2.883l-4.618 7.999-7.999 4.618zM10.606 46.57c-1.3-2.252-1.645-4.875-0.972-7.386 0.673-2.511 2.284-4.61 4.535-5.91l2.497-1.441v9.236l-4.618 7.999zM14.168 66.727c-2.252-1.3-3.862-3.399-4.535-5.91-0.673-2.511-0.328-5.135 0.972-7.386l1.441-2.497 4.618 7.999v9.236zM27.332 82.401c-2.6 0-5.044-1.012-6.883-2.851-1.838-1.838-2.851-4.283-2.851-6.883v-2.883l7.999 4.618 4.618 7.999zM46.57 89.394c-2.252 1.3-4.875 1.645-7.386 0.972-2.511-0.673-4.61-2.284-5.91-4.535l-1.441-2.497h9.236l7.999 4.618zM66.727 85.832c-1.3 2.252-3.399 3.862-5.91 4.535-2.511 0.673-5.135 0.328-7.386-0.972l-2.497-1.441 7.999-4.618h9.236zM82.401 72.668c0 2.6-1.012 5.044-2.851 6.883-1.838 1.838-4.283 2.851-6.883 2.851h-2.883l4.618-7.999 7.999-4.618zM90.367 60.816c-0.673 2.511-2.284 4.61-4.535 5.91l-2.497 1.441v-9.236l4.618-7.999 1.441 2.497c1.3 2.253 1.646 4.876 0.973 7.387z" fill="#c8c8c8" fill-rule="nonzero" stroke="none" stroke-width="1" stroke-linecap="butt" stroke-linejoin="miter" stroke-miterlimit="10" stroke-dasharray="" stroke-dashoffset="0" font-family="none" font-weight="none" font-size="none" text-anchor="none" style="mix-blend-mode: normal" data-fill-palette-color="tertiary"></path></g><g transform="matrix(1,0,0,1,64,121.28810862519094)"><svg viewBox="0 0 192 117.42378274961811" height="117.42378274961811" width="192"><g><svg viewBox="0 0 192 117.42378274961811" height="117.42378274961811" width="192"><g><svg viewBox="0 0 192 117.42378274961811" height="117.42378274961811" width="192"><g transform="matrix(1,0,0,1,0,66.34023231354232)"><svg viewBox="0 0 192 51.08355043607579" height="51.08355043607579" width="192"><g id="textblocktransform"><svg viewBox="0 0 192 51.08355043607579" height="51.08355043607579" width="192" id="textblock"><g><svg viewBox="0 0 192 32.80441446965052" height="32.80441446965052" width="192"><g transform="matrix(1,0,0,1,0,0)"><svg width="192" viewBox="2.1499999999999995 -40.8 244.63 41.8" height="32.80441446965052" data-palette-color="#c8c8c8"><path d="M2.6-39.95L2.6-39.95Q4.65-39.95 9.13-40.15 13.6-40.35 17.25-40.35L17.25-40.35Q24.85-40.35 28.1-37.33 31.35-34.3 31.35-28.9L31.35-28.9Q31.35-25.65 29.1-23.05 26.85-20.45 23.2-19.15L23.2-19.15Q25.35-15.5 27.23-12.3 29.1-9.1 29.95-7.55 30.8-6 31.5-4.78 32.2-3.55 32.52-3.1 32.85-2.65 33.15-2.35L33.15-2.35 36.75-1.85Q36.95-1.1 36.75 0L36.75 0 28.25 0 20.7-13.7Q19.2-16.55 17.85-18.1L17.85-18.1 17.15-18.1Q14.6-18.1 12-18.4L12-18.4 12-2.2 16.55-1.7Q16.75-0.95 16.55 0.15L16.55 0.15Q13.4 0 9.45 0L9.45 0Q6.5 0 2.3 0.1L2.3 0.1Q2-0.8 2.3-1.7L2.3-1.7 6.45-2.3Q6.65-4.2 6.65-8.15L6.65-8.15 6.65-37.6 2.6-38.1Q2.4-38.85 2.6-39.95ZM12-31.65L12-31.65 12-20.45Q13.55-20.25 16.5-20.25L16.5-20.25Q19.05-20.25 20.88-21.08 22.7-21.9 23.6-23.28 24.5-24.65 24.9-26.1 25.3-27.55 25.3-29.15L25.3-29.15Q25.3-33.45 23.15-35.85 21-38.25 16-38.25L16-38.25Q14.15-38.25 12.3-37.9L12.3-37.9Q12-35.05 12-31.65ZM58.6-14.1L58.6-14.1 42.9-14.1Q42.45-1.35 50.55-1.35L50.55-1.35Q54-1.35 57.6-4.4L57.6-4.4Q58.35-3.95 58.75-2.85L58.75-2.85Q55.3 1 50 1L50 1Q37.8 1 37.8-13.35L37.8-13.35Q37.8-20.15 41.4-23.93 45-27.7 49.8-27.7L49.8-27.7Q55.05-27.7 57.35-24.05 59.65-20.4 59.65-14.55L59.65-14.55Q59.15-14.15 58.6-14.1ZM49.7-25.7L49.7-25.7Q47.1-25.7 45.27-23 43.45-20.3 43.05-16.1L43.05-16.1 49.25-16.1Q52.95-16.1 54.55-16.55L54.55-16.55Q54.55-20.65 53.3-23.18 52.05-25.7 49.7-25.7ZM68.55-6.65L68.55-6.65Q68.55-4.05 69.5-2.98 70.45-1.9 72.5-1.9L72.5-1.9Q74-1.9 75.82-2.83 77.65-3.75 79.2-5.5L79.2-5.5 79.2-13.3Q74.05-13 71.3-11.48 68.55-9.95 68.55-6.65ZM79.2-15.1L79.2-15.1 79.2-17.65Q79.2-21.9 78.22-23.83 77.25-25.75 75-25.75L75-25.75Q72.7-25.75 71.3-24.28 69.89-22.8 69.39-19.25L69.39-19.25Q67.8-18.9 67.05-18.9L67.05-18.9Q65.09-18.9 64.75-20.3L64.75-20.3Q64.75-23.7 67.7-25.7 70.64-27.7 75.05-27.7L75.05-27.7Q79.9-27.7 81.92-25.73 83.95-23.75 83.95-18.65L83.95-18.65 83.95-4.55Q83.95-3.3 84.09-2.4L84.09-2.4 88.05-1.9Q88.25-1.15 88.05 0L88.05 0Q84.5 0.15 80.5 0.7L80.5 0.7Q80.09 0.3 80-0.3L80-0.3 79.75-3.75Q75.59 1 70.5 1L70.5 1Q67.34 1 65.57-0.8 63.8-2.6 63.8-5.65L63.8-5.65Q63.8-10.25 67.97-12.6 72.15-14.95 79.2-15.1ZM98.34-31.7L98.34-31.7 98.34-2.55 102.39-1.8Q102.59-1 102.39 0.2L102.39 0.2Q99.24 0.05 95.94 0.05L95.94 0.05Q93.64 0.05 89.44 0.15L89.44 0.15Q89.14-0.8 89.44-1.8L89.44-1.8 93.39-2.35Q93.59-5.1 93.59-8.7L93.59-8.7 93.59-37.35 89.49-37.85Q89.29-38.6 89.49-39.75L89.49-39.75Q92.94-40 98.09-40.8L98.09-40.8Q98.54-40.3 98.59-39.8L98.59-39.8Q98.34-38.5 98.34-31.7ZM110.09-8.1L110.09-8.1 110.09-37.6 106.04-38.15Q105.74-39.05 106.04-39.95L106.04-39.95 112.89-39.8 133.09-39.8 133.14-28.2Q132.04-28 131.29-28.2L131.29-28.2 128.94-37.25 115.44-37.25 115.44-22.25 123.44-22.4 124.59-27.3Q125.34-27.5 126.44-27.3L126.44-27.3Q126.24-24.5 126.24-20.85L126.24-20.85Q126.24-17.5 126.39-14.35L126.39-14.35Q125.49-14.05 124.59-14.35L124.59-14.35 123.49-19.55 115.44-19.7 115.44-2.55 130.44-2.55 132.79-11.6Q133.54-11.8 134.64-11.6L134.64-11.6 134.59 0 112.89 0 105.74 0.15Q105.44-0.75 105.74-1.65L105.74-1.65 109.89-2.2Q110.09-4.75 110.09-8.1ZM148.49-1.2L148.49-1.2Q151.19-1.2 152.49-2.45 153.79-3.7 153.79-5.35L153.79-5.35Q153.79-6.3 153.49-7.1 153.19-7.9 152.51-8.65 151.84-9.4 150.74-10.13 149.64-10.85 147.99-11.7L147.99-11.7Q145.94-12.75 144.46-13.7 142.99-14.65 142.04-15.7 141.09-16.75 140.61-17.95 140.14-19.15 140.14-20.65L140.14-20.65Q140.14-22.45 140.79-23.78 141.44-25.1 142.61-25.98 143.79-26.85 145.39-27.28 146.99-27.7 148.94-27.7L148.94-27.7Q152.84-27.7 156.54-25.8L156.54-25.8 156.54-19.4 154.19-19.4 153.09-24.8Q150.89-25.85 148.44-25.85L148.44-25.85Q144.34-25.85 144.34-22.5L144.34-22.5Q144.34-20.7 145.69-19.2 147.04-17.7 150.04-16.2L150.04-16.2Q152.09-15.15 153.64-14.2 155.19-13.25 156.21-12.2 157.24-11.15 157.76-9.93 158.29-8.7 158.29-7.15L158.29-7.15Q158.29-5.4 157.54-3.9 156.79-2.4 155.44-1.33 154.09-0.25 152.19 0.38 150.29 1 147.99 1L147.99 1Q143.54 1 139.64-0.9L139.64-0.9 139.64-7.3 141.99-7.3 143.09-2.35Q145.64-1.2 148.49-1.2ZM169.89-32.7L169.89-32.7 169.89-25.55 176.94-25.55Q177.04-24.95 177.04-24.65L177.04-24.65Q177.04-24.2 176.94-23.6L176.94-23.6 169.89-22.55 169.89-8.8Q169.89-5.1 170.56-3.58 171.24-2.05 172.69-2.05L172.69-2.05Q173.99-2.05 176.74-3.1L176.74-3.1Q177.24-2.65 177.44-1.4L177.44-1.4Q175.94-0.5 175.16-0.08 174.39 0.35 173.21 0.68 172.04 1 170.74 1L170.74 1Q168.24 1 166.66-0.93 165.09-2.85 165.09-6.8L165.09-6.8 165.09-23.15 161.59-23.6Q161.49-24.1 161.49-24.45L161.49-24.45Q161.49-24.85 161.59-25.55L161.59-25.55Q162.99-25.8 164.01-26.43 165.04-27.05 165.74-28.18 166.44-29.3 166.81-30.18 167.19-31.05 167.74-32.7L167.74-32.7Q168.19-32.85 168.84-32.85L168.84-32.85Q169.44-32.85 169.89-32.7ZM184.93-6.65L184.93-6.65Q184.93-4.05 185.88-2.98 186.83-1.9 188.88-1.9L188.88-1.9Q190.38-1.9 192.21-2.83 194.03-3.75 195.58-5.5L195.58-5.5 195.58-13.3Q190.43-13 187.68-11.48 184.93-9.95 184.93-6.65ZM195.58-15.1L195.58-15.1 195.58-17.65Q195.58-21.9 194.61-23.83 193.63-25.75 191.38-25.75L191.38-25.75Q189.08-25.75 187.68-24.28 186.28-22.8 185.78-19.25L185.78-19.25Q184.18-18.9 183.43-18.9L183.43-18.9Q181.48-18.9 181.13-20.3L181.13-20.3Q181.13-23.7 184.08-25.7 187.03-27.7 191.43-27.7L191.43-27.7Q196.28-27.7 198.31-25.73 200.33-23.75 200.33-18.65L200.33-18.65 200.33-4.55Q200.33-3.3 200.48-2.4L200.48-2.4 204.43-1.9Q204.63-1.15 204.43 0L204.43 0Q200.88 0.15 196.88 0.7L196.88 0.7Q196.48 0.3 196.38-0.3L196.38-0.3 196.13-3.75Q191.98 1 186.88 1L186.88 1Q183.73 1 181.96-0.8 180.18-2.6 180.18-5.65L180.18-5.65Q180.18-10.25 184.36-12.6 188.53-14.95 195.58-15.1ZM214.38-32.7L214.38-32.7 214.38-25.55 221.43-25.55Q221.53-24.95 221.53-24.65L221.53-24.65Q221.53-24.2 221.43-23.6L221.43-23.6 214.38-22.55 214.38-8.8Q214.38-5.1 215.06-3.58 215.73-2.05 217.18-2.05L217.18-2.05Q218.48-2.05 221.23-3.1L221.23-3.1Q221.73-2.65 221.93-1.4L221.93-1.4Q220.43-0.5 219.66-0.08 218.88 0.35 217.71 0.68 216.53 1 215.23 1L215.23 1Q212.73 1 211.16-0.93 209.58-2.85 209.58-6.8L209.58-6.8 209.58-23.15 206.08-23.6Q205.98-24.1 205.98-24.45L205.98-24.45Q205.98-24.85 206.08-25.55L206.08-25.55Q207.48-25.8 208.51-26.43 209.53-27.05 210.23-28.18 210.93-29.3 211.31-30.18 211.68-31.05 212.23-32.7L212.23-32.7Q212.68-32.85 213.33-32.85L213.33-32.85Q213.93-32.85 214.38-32.7ZM245.73-14.1L245.73-14.1 230.03-14.1Q229.58-1.35 237.68-1.35L237.68-1.35Q241.13-1.35 244.73-4.4L244.73-4.4Q245.48-3.95 245.88-2.85L245.88-2.85Q242.43 1 237.13 1L237.13 1Q224.93 1 224.93-13.35L224.93-13.35Q224.93-20.15 228.53-23.93 232.13-27.7 236.93-27.7L236.93-27.7Q242.18-27.7 244.48-24.05 246.78-20.4 246.78-14.55L246.78-14.55Q246.28-14.15 245.73-14.1ZM236.83-25.7L236.83-25.7Q234.23-25.7 232.4-23 230.58-20.3 230.18-16.1L230.18-16.1 236.38-16.1Q240.08-16.1 241.68-16.55L241.68-16.55Q241.68-20.65 240.43-23.18 239.18-25.7 236.83-25.7Z" opacity="1" transform="matrix(1,0,0,1,0,0)" fill="#c8c8c8" class="wordmark-text-0" data-fill-palette-color="primary" id="text-0"></path></svg></g></svg></g><g transform="matrix(1,0,0,1,0,40.54874941998773)"><svg viewBox="0 0 192 10.534801016088059" height="10.534801016088059" width="192"><g transform="matrix(1,0,0,1,0,0)"><svg width="192" viewBox="3.75 -37 885.75 48.6" height="10.534801016088059" data-palette-color="#c8c8c8"><path d="M16.7 0.6L16.7 0.6Q10.65 0.6 7.2-3 3.75-6.6 3.75-13.3L3.75-13.3 3.75-35 8.5-35 8.5-14.05Q8.5-9.05 10.55-6.3 12.6-3.55 16.7-3.55L16.7-3.55Q20.95-3.55 23.05-6.23 25.15-8.9 25.15-14.05L25.15-14.05 25.15-35 29.75-35 29.75-13.5Q29.75-9.1 28.13-5.93 26.5-2.75 23.58-1.07 20.65 0.6 16.7 0.6ZM42 0L37.5 0 37.5-26 41.85-26 41.85-21.65Q43.25-23.75 45.42-25.18 47.6-26.6 50.6-26.6L50.6-26.6Q55-26.6 57.17-23.95 59.35-21.3 59.35-16.95L59.35-16.95 59.35 0 54.85 0 54.85-16.45Q54.85-19.25 53.53-20.95 52.2-22.65 49.85-22.65L49.85-22.65Q47.55-22.65 45.5-21.03 43.45-19.4 42-17.2L42-17.2 42 0ZM75 0.6L75 0.6Q72.7 0.6 70.85-0.28 69-1.15 67.92-3.1 66.85-5.05 66.85-8.15L66.85-8.15 66.85-37 71.35-37 71.35-8.6Q71.35-5.9 72.47-4.6 73.6-3.3 75.6-3.3L75.6-3.3Q76.55-3.3 77.47-3.53 78.4-3.75 79.05-4.05L79.05-4.05 80.15-0.4Q79.25 0 77.92 0.3 76.6 0.6 75 0.6ZM94.6 0.6L94.6 0.6Q90.9 0.6 87.95-1.13 85-2.85 83.33-5.93 81.65-9 81.65-13L81.65-13Q81.65-17.2 83.35-20.25 85.05-23.3 88-24.95 90.95-26.6 94.6-26.6L94.6-26.6Q98.25-26.6 101.18-24.95 104.1-23.3 105.83-20.28 107.55-17.25 107.55-13.1L107.55-13.1Q107.55-8.95 105.85-5.88 104.15-2.8 101.23-1.1 98.3 0.6 94.6 0.6ZM94.6-3.4L94.6-3.4Q98.55-3.4 100.75-6.08 102.95-8.75 102.95-13L102.95-13Q102.95-15.6 101.85-17.78 100.75-19.95 98.88-21.28 97-22.6 94.6-22.6L94.6-22.6Q90.65-22.6 88.45-20 86.25-17.4 86.25-13.1L86.25-13.1Q86.25-10.5 87.35-8.28 88.45-6.05 90.33-4.73 92.2-3.4 94.6-3.4ZM124.05 0.6L124.05 0.6Q120.35 0.6 117.58-1.13 114.8-2.85 113.3-5.93 111.8-9 111.8-13L111.8-13Q111.8-16.75 113.33-19.85 114.85-22.95 117.7-24.78 120.55-26.6 124.4-26.6L124.4-26.6Q126.6-26.6 128.28-26.2 129.95-25.8 131.5-25.05L131.5-25.05 130.15-21.25Q128.75-21.95 127.48-22.28 126.2-22.6 124.65-22.6L124.65-22.6Q121.15-22.6 118.78-20.08 116.4-17.55 116.4-13.1L116.4-13.1Q116.4-10.4 117.4-8.2 118.4-6 120.18-4.7 121.95-3.4 124.35-3.4L124.35-3.4Q126.25-3.4 127.6-3.83 128.95-4.25 130.5-5.05L130.5-5.05 131.9-1.25Q130.35-0.4 128.43 0.1 126.5 0.6 124.05 0.6ZM158.2-2.5L155.1 0.5 141.65-13.35 141.65 0 137.15 0 137.15-37 141.65-37 141.65-15.85 153.4-26.5 156-23.65 145.95-14.75 158.2-2.5ZM167.2 0L162.7 0 162.7-26 167.2-26 167.2 0ZM164.95-30.45L164.95-30.45Q163.65-30.45 162.73-31.4 161.8-32.35 161.8-33.6L161.8-33.6Q161.8-35.05 162.65-35.9 163.5-36.75 164.95-36.75L164.95-36.75Q166.25-36.75 167.18-35.83 168.1-34.9 168.1-33.6L168.1-33.6Q168.1-32.2 167.25-31.33 166.4-30.45 164.95-30.45ZM179.7 0L175.2 0 175.2-26 179.55-26 179.55-21.65Q180.95-23.75 183.13-25.18 185.3-26.6 188.3-26.6L188.3-26.6Q192.7-26.6 194.88-23.95 197.05-21.3 197.05-16.95L197.05-16.95 197.05 0 192.55 0 192.55-16.45Q192.55-19.25 191.23-20.95 189.9-22.65 187.55-22.65L187.55-22.65Q185.25-22.65 183.2-21.03 181.15-19.4 179.7-17.2L179.7-17.2 179.7 0ZM214.35 11.6L214.35 11.6Q212.05 11.6 209.88 11.05 207.7 10.5 206 9.4L206 9.4 207.65 5.5Q208.85 6.45 210.45 7.08 212.05 7.7 214.35 7.7L214.35 7.7Q217.9 7.7 219.93 5.83 221.95 3.95 221.95-0.15L221.95-0.15 221.95-3.35Q220.95-2.15 219.08-1.07 217.2 0 214.6 0L214.6 0Q211.65 0 209-1.53 206.35-3.05 204.7-6 203.05-8.95 203.05-13.1L203.05-13.1Q203.05-17 204.68-20.05 206.3-23.1 209.05-24.85 211.8-26.6 215.1-26.6L215.1-26.6Q217.3-26.6 219.1-25.85 220.9-25.1 222.2-24L222.2-24 222.2-26 226.3-26 226.3-0.6Q226.3 3.7 224.8 6.4 223.3 9.1 220.63 10.35 217.95 11.6 214.35 11.6ZM215.6-4L215.6-4Q217.6-4 219.2-4.9 220.8-5.8 221.8-7L221.8-7 221.8-20.6Q220.7-21.4 219.15-22.05 217.6-22.7 215.55-22.7L215.55-22.7Q213.5-22.7 211.7-21.6 209.9-20.5 208.78-18.43 207.65-16.35 207.65-13.35L207.65-13.35Q207.65-10.5 208.78-8.4 209.9-6.3 211.7-5.15 213.5-4 215.6-4ZM258.75 0.4L258.75 0.4Q255.9 0.4 253.78 0.25 251.65 0.1 249.55-0.1L249.55-0.1 249.55-34.9Q251.9-35.15 254.15-35.27 256.4-35.4 259.3-35.4L259.3-35.4Q263.8-35.4 267.07-34 270.35-32.6 272.48-30.15 274.6-27.7 275.63-24.48 276.65-21.25 276.65-17.55L276.65-17.55Q276.65-13.9 275.6-10.65 274.55-7.4 272.38-4.93 270.2-2.45 266.82-1.03 263.45 0.4 258.75 0.4ZM258.9-3.75L258.9-3.75Q263.4-3.75 266.25-5.5 269.1-7.25 270.45-10.38 271.8-13.5 271.8-17.55L271.8-17.55Q271.8-21.15 270.45-24.3 269.1-27.45 266.3-29.38 263.5-31.3 259.15-31.3L259.15-31.3Q257.7-31.3 256.5-31.23 255.3-31.15 254.3-31.05L254.3-31.05 254.3-4Q255.35-3.85 256.5-3.8 257.65-3.75 258.9-3.75ZM294.1 0.6L294.1 0.6Q290.4 0.6 287.45-1.13 284.5-2.85 282.83-5.93 281.15-9 281.15-13L281.15-13Q281.15-17.2 282.85-20.25 284.55-23.3 287.5-24.95 290.45-26.6 294.1-26.6L294.1-26.6Q297.75-26.6 300.68-24.95 303.6-23.3 305.33-20.28 307.05-17.25 307.05-13.1L307.05-13.1Q307.05-8.95 305.35-5.88 303.65-2.8 300.73-1.1 297.8 0.6 294.1 0.6ZM294.1-3.4L294.1-3.4Q298.05-3.4 300.25-6.08 302.45-8.75 302.45-13L302.45-13Q302.45-15.6 301.35-17.78 300.25-19.95 298.38-21.28 296.5-22.6 294.1-22.6L294.1-22.6Q290.15-22.6 287.95-20 285.75-17.4 285.75-13.1L285.75-13.1Q285.75-10.5 286.85-8.28 287.95-6.05 289.83-4.73 291.7-3.4 294.1-3.4ZM324 0.6L324 0.6Q320.3 0.6 317.35-1.13 314.4-2.85 312.73-5.93 311.05-9 311.05-13L311.05-13Q311.05-17.2 312.75-20.25 314.45-23.3 317.4-24.95 320.35-26.6 324-26.6L324-26.6Q327.65-26.6 330.57-24.95 333.5-23.3 335.23-20.28 336.95-17.25 336.95-13.1L336.95-13.1Q336.95-8.95 335.25-5.88 333.55-2.8 330.63-1.1 327.7 0.6 324 0.6ZM324-3.4L324-3.4Q327.95-3.4 330.15-6.08 332.35-8.75 332.35-13L332.35-13Q332.35-15.6 331.25-17.78 330.15-19.95 328.28-21.28 326.4-22.6 324-22.6L324-22.6Q320.05-22.6 317.85-20 315.65-17.4 315.65-13.1L315.65-13.1Q315.65-10.5 316.75-8.28 317.85-6.05 319.73-4.73 321.6-3.4 324-3.4ZM347.45 0L342.95 0 342.95-26 347.3-26 347.3-20.35Q347.95-22 349.05-23.43 350.15-24.85 351.8-25.73 353.45-26.6 355.65-26.6L355.65-26.6Q356.4-26.6 357.15-26.53 357.9-26.45 358.4-26.3L358.4-26.3 357.05-21.65Q356.1-22.05 354.8-22.05L354.8-22.05Q352.95-22.05 351.27-21 349.6-19.95 348.52-17.75 347.45-15.55 347.45-12.15L347.45-12.15 347.45 0ZM368.65 0.6L368.65 0.6Q365.7 0.6 363.32-0.15 360.95-0.9 359.4-2.1L359.4-2.1 361.3-5.85Q362.6-4.75 364.57-4.03 366.55-3.3 368.8-3.3L368.8-3.3Q371.6-3.3 373.02-4.23 374.45-5.15 374.45-6.6L374.45-6.6Q374.45-7.65 373.92-8.45 373.4-9.25 372-10.03 370.6-10.8 367.95-11.7L367.95-11.7Q364.3-12.95 362.47-14.68 360.65-16.4 360.65-19.45L360.65-19.45Q360.65-22.45 363.27-24.53 365.9-26.6 370.55-26.6L370.55-26.6Q373.05-26.6 375-26.08 376.95-25.55 378.5-24.75L378.5-24.75 377.25-21.05Q375.9-21.85 374.17-22.35 372.45-22.85 370.35-22.85L370.35-22.85Q367.75-22.85 366.4-21.8 365.05-20.75 365.05-19.5L365.05-19.5Q365.05-18.3 366.1-17.45 367.15-16.6 370.2-15.6L370.2-15.6Q375.15-13.95 377.1-11.95 379.05-9.95 379.05-6.95L379.05-6.95Q379.05-3.45 376.22-1.43 373.4 0.6 368.65 0.6ZM409.15 0.6L409.15 0.6Q405.4 0.6 403.22-1.88 401.05-4.35 401.05-8.95L401.05-8.95 401.05-21.15 396.55-21.15 396.55-25.05 401.15-25.05 402.1-33.25 405.55-33.25 405.55-25.05 412.75-25.05 412.75-21.15 405.55-21.15 405.55-8.6Q405.55-5.7 406.77-4.55 408-3.4 409.7-3.4L409.7-3.4Q410.95-3.4 412.07-3.8 413.2-4.2 414.15-4.75L414.15-4.75 415.4-1.15Q414.4-0.55 412.7 0.03 411 0.6 409.15 0.6ZM429.85 0.6L429.85 0.6Q426.15 0.6 423.2-1.13 420.25-2.85 418.57-5.93 416.9-9 416.9-13L416.9-13Q416.9-17.2 418.6-20.25 420.3-23.3 423.25-24.95 426.2-26.6 429.85-26.6L429.85-26.6Q433.5-26.6 436.42-24.95 439.35-23.3 441.07-20.28 442.8-17.25 442.8-13.1L442.8-13.1Q442.8-8.95 441.1-5.88 439.4-2.8 436.47-1.1 433.55 0.6 429.85 0.6ZM429.85-3.4L429.85-3.4Q433.8-3.4 436-6.08 438.2-8.75 438.2-13L438.2-13Q438.2-15.6 437.1-17.78 436-19.95 434.13-21.28 432.25-22.6 429.85-22.6L429.85-22.6Q425.9-22.6 423.7-20 421.5-17.4 421.5-13.1L421.5-13.1Q421.5-10.5 422.6-8.28 423.7-6.05 425.57-4.73 427.45-3.4 429.85-3.4ZM477.2 0L472.45 0 472.45-13.3 460.3-33.05 464.3-35.45 475-17.7 485.5-35.25 489.25-33.05 477.2-13.3 477.2 0ZM501.45 0.6L501.45 0.6Q497.75 0.6 494.8-1.13 491.85-2.85 490.17-5.93 488.5-9 488.5-13L488.5-13Q488.5-17.2 490.2-20.25 491.9-23.3 494.85-24.95 497.8-26.6 501.45-26.6L501.45-26.6Q505.1-26.6 508.02-24.95 510.95-23.3 512.67-20.28 514.4-17.25 514.4-13.1L514.4-13.1Q514.4-8.95 512.7-5.88 511-2.8 508.07-1.1 505.15 0.6 501.45 0.6ZM501.45-3.4L501.45-3.4Q505.4-3.4 507.6-6.08 509.8-8.75 509.8-13L509.8-13Q509.8-15.6 508.7-17.78 507.6-19.95 505.72-21.28 503.85-22.6 501.45-22.6L501.45-22.6Q497.5-22.6 495.3-20 493.1-17.4 493.1-13.1L493.1-13.1Q493.1-10.5 494.2-8.28 495.3-6.05 497.17-4.73 499.05-3.4 501.45-3.4ZM528.9 0.6L528.9 0.6Q526.65 0.6 524.65-0.35 522.65-1.3 521.4-3.43 520.15-5.55 520.15-9.1L520.15-9.1 520.15-26 524.65-26 524.65-9.7Q524.65-6.65 525.95-5.03 527.25-3.4 529.75-3.4L529.75-3.4Q531.8-3.4 533.73-4.23 535.65-5.05 537.15-6.45L537.15-6.45 537.15-26 541.65-26 541.65-6.75Q541.65-4.6 542.57-3.93 543.5-3.25 544.6-3.25L544.6-3.25 543.65 0.25Q539 0.25 537.9-3.45L537.9-3.45Q536.15-1.65 533.85-0.53 531.55 0.6 528.9 0.6ZM555.1 0L550.6 0 550.6-26 554.95-26 554.95-20.35Q555.6-22 556.7-23.43 557.8-24.85 559.45-25.73 561.1-26.6 563.3-26.6L563.3-26.6Q564.05-26.6 564.8-26.53 565.55-26.45 566.05-26.3L566.05-26.3 564.7-21.65Q563.75-22.05 562.45-22.05L562.45-22.05Q560.6-22.05 558.93-21 557.25-19.95 556.18-17.75 555.1-15.55 555.1-12.15L555.1-12.15 555.1 0ZM595.25 0.4L595.25 0.4Q592.4 0.4 590.28 0.25 588.15 0.1 586.05-0.1L586.05-0.1 586.05-34.9Q588.4-35.15 590.65-35.27 592.9-35.4 595.8-35.4L595.8-35.4Q600.3-35.4 603.58-34 606.85-32.6 608.98-30.15 611.1-27.7 612.13-24.48 613.15-21.25 613.15-17.55L613.15-17.55Q613.15-13.9 612.1-10.65 611.05-7.4 608.88-4.93 606.7-2.45 603.33-1.03 599.95 0.4 595.25 0.4ZM595.4-3.75L595.4-3.75Q599.9-3.75 602.75-5.5 605.6-7.25 606.95-10.38 608.3-13.5 608.3-17.55L608.3-17.55Q608.3-21.15 606.95-24.3 605.6-27.45 602.8-29.38 600-31.3 595.65-31.3L595.65-31.3Q594.2-31.3 593-31.23 591.8-31.15 590.8-31.05L590.8-31.05 590.8-4Q591.85-3.85 593-3.8 594.15-3.75 595.4-3.75ZM624.15 0L619.65 0 619.65-26 624-26 624-20.35Q624.65-22 625.75-23.43 626.85-24.85 628.5-25.73 630.15-26.6 632.35-26.6L632.35-26.6Q633.1-26.6 633.85-26.53 634.6-26.45 635.1-26.3L635.1-26.3 633.75-21.65Q632.8-22.05 631.5-22.05L631.5-22.05Q629.65-22.05 627.98-21 626.3-19.95 625.23-17.75 624.15-15.55 624.15-12.15L624.15-12.15 624.15 0ZM648.5 0.6L648.5 0.6Q642.9 0.6 639.63-2.98 636.35-6.55 636.35-13L636.35-13Q636.35-16.9 637.83-19.98 639.3-23.05 641.95-24.83 644.6-26.6 648.1-26.6L648.1-26.6Q651.85-26.6 654.33-24.98 656.8-23.35 658.05-20.6 659.3-17.85 659.3-14.55L659.3-14.55Q659.3-12.8 659.15-11.15L659.15-11.15 640.95-11.15Q641.4-7.5 643.5-5.45 645.6-3.4 649.05-3.4L649.05-3.4Q651.3-3.4 653.1-3.88 654.9-4.35 656.55-5.1L656.55-5.1 657.6-1.25Q655.8-0.45 653.55 0.08 651.3 0.6 648.5 0.6ZM640.9-14.8L640.9-14.8 655.15-14.8Q655.15-18.6 653.25-20.65 651.35-22.7 648-22.7L648-22.7Q645.1-22.7 643.2-20.68 641.3-18.65 640.9-14.8ZM675.25 0.6L675.25 0.6Q672 0.6 669.35-1.05 666.7-2.7 665.13-5.73 663.55-8.75 663.55-12.85L663.55-12.85Q663.55-16.75 665.13-19.85 666.7-22.95 669.48-24.78 672.25-26.6 675.85-26.6L675.85-26.6Q678.1-26.6 679.93-25.83 681.75-25.05 683.1-23.9L683.1-23.9 683.1-26 687.2-26 687.2-6.3Q687.2-4.4 688.13-3.83 689.05-3.25 690.15-3.25L690.15-3.25 689.2 0.25Q684.4 0.25 683.4-3.65L683.4-3.65Q682.25-2.05 680.28-0.73 678.3 0.6 675.25 0.6ZM676.25-3.4L676.25-3.4Q678.15-3.4 679.85-4.33 681.55-5.25 682.7-6.65L682.7-6.65 682.7-20.6Q681.35-21.55 679.73-22.13 678.1-22.7 676.3-22.7L676.3-22.7Q673.9-22.7 672.08-21.48 670.25-20.25 669.2-18.07 668.15-15.9 668.15-13L668.15-13Q668.15-10.2 669.2-8.03 670.25-5.85 672.1-4.63 673.95-3.4 676.25-3.4ZM700.65 0L696.15 0 696.15-26 700.5-26 700.5-21.65Q701.9-23.75 704.05-25.18 706.2-26.6 708.95-26.6L708.95-26.6Q712.05-26.6 714.03-25.1 716-23.6 716.8-21.1L716.8-21.1Q718.35-23.4 720.48-25 722.6-26.6 725.75-26.6L725.75-26.6Q730-26.6 732.08-23.93 734.15-21.25 734.15-16.95L734.15-16.95 734.15 0 729.65 0 729.65-16.6Q729.65-19.3 728.4-20.98 727.15-22.65 724.95-22.65L724.95-22.65Q722.7-22.65 720.78-20.98 718.85-19.3 717.4-17.05L717.4-17.05 717.4 0 712.9 0 712.9-16.6Q712.9-19.3 711.65-20.98 710.4-22.65 708.2-22.65L708.2-22.65Q706-22.65 704.05-21.03 702.1-19.4 700.65-17.2L700.65-17.2 700.65 0ZM762.15 0L757.4 0 757.4-35 762.15-35 762.15-20.05 779.4-20.05 779.4-35 784.15-35 784.15 0 779.4 0 779.4-15.95 762.15-15.95 762.15 0ZM803.6 0.6L803.6 0.6Q799.9 0.6 796.95-1.13 794-2.85 792.33-5.93 790.65-9 790.65-13L790.65-13Q790.65-17.2 792.35-20.25 794.05-23.3 797-24.95 799.95-26.6 803.6-26.6L803.6-26.6Q807.25-26.6 810.18-24.95 813.1-23.3 814.83-20.28 816.55-17.25 816.55-13.1L816.55-13.1Q816.55-8.95 814.85-5.88 813.15-2.8 810.23-1.1 807.3 0.6 803.6 0.6ZM803.6-3.4L803.6-3.4Q807.55-3.4 809.75-6.08 811.95-8.75 811.95-13L811.95-13Q811.95-15.6 810.85-17.78 809.75-19.95 807.88-21.28 806-22.6 803.6-22.6L803.6-22.6Q799.65-22.6 797.45-20 795.25-17.4 795.25-13.1L795.25-13.1Q795.25-10.5 796.35-8.28 797.45-6.05 799.33-4.73 801.2-3.4 803.6-3.4ZM827.05 0L822.55 0 822.55-26 826.9-26 826.9-21.65Q828.3-23.75 830.45-25.18 832.6-26.6 835.35-26.6L835.35-26.6Q838.45-26.6 840.43-25.1 842.4-23.6 843.2-21.1L843.2-21.1Q844.75-23.4 846.88-25 849-26.6 852.15-26.6L852.15-26.6Q856.4-26.6 858.48-23.93 860.55-21.25 860.55-16.95L860.55-16.95 860.55 0 856.05 0 856.05-16.6Q856.05-19.3 854.8-20.98 853.55-22.65 851.35-22.65L851.35-22.65Q849.1-22.65 847.18-20.98 845.25-19.3 843.8-17.05L843.8-17.05 843.8 0 839.3 0 839.3-16.6Q839.3-19.3 838.05-20.98 836.8-22.65 834.6-22.65L834.6-22.65Q832.4-22.65 830.45-21.03 828.5-19.4 827.05-17.2L827.05-17.2 827.05 0ZM878.7 0.6L878.7 0.6Q873.1 0.6 869.83-2.98 866.55-6.55 866.55-13L866.55-13Q866.55-16.9 868.03-19.98 869.5-23.05 872.15-24.83 874.8-26.6 878.3-26.6L878.3-26.6Q882.05-26.6 884.53-24.98 887-23.35 888.25-20.6 889.5-17.85 889.5-14.55L889.5-14.55Q889.5-12.8 889.35-11.15L889.35-11.15 871.15-11.15Q871.6-7.5 873.7-5.45 875.8-3.4 879.25-3.4L879.25-3.4Q881.5-3.4 883.3-3.88 885.1-4.35 886.75-5.1L886.75-5.1 887.8-1.25Q886-0.45 883.75 0.08 881.5 0.6 878.7 0.6ZM871.1-14.8L871.1-14.8 885.35-14.8Q885.35-18.6 883.45-20.65 881.55-22.7 878.2-22.7L878.2-22.7Q875.3-22.7 873.4-20.68 871.5-18.65 871.1-14.8Z" opacity="1" transform="matrix(1,0,0,1,0,0)" fill="#c8c8c8" class="slogan-text-1" data-fill-palette-color="secondary" id="text-1"></path></svg></g></svg></g></svg></g></svg></g><g transform="matrix(1,0,0,1,57.761097757209185,0)"><svg viewBox="0 0 76.47780448558163 58.595897363205104" height="58.595897363205104" width="76.47780448558163"><g><svg xmlns="http://www.w3.org/2000/svg" xmlns:xlink="http://www.w3.org/1999/xlink" version="1.1" x="0" y="0" viewBox="8.166243715191824 23.059999999999995 127.75036888076215 97.88" enable-background="new 0 0 144.083 144" xml:space="preserve" height="58.595897363205104" width="76.47780448558163" class="icon-icon-0" data-fill-palette-color="accent" id="icon-0"><path d="M135.848 65.922l-6-27.554c-0.301-1.379-1.521-2.362-2.932-2.362h-6.926v-9.946c0-1.657-1.343-3-3-3h-10.643c-1.657 0-3 1.343-3 3v9.946H40.733v-9.946c0-1.657-1.343-3-3-3H27.091c-1.657 0-3 1.343-3 3v9.946h-6.925c-1.411 0-2.631 0.983-2.931 2.362l-6 27.554c-0.193 0.887 0.025 1.813 0.595 2.521 0.569 0.707 1.428 1.118 2.336 1.118h5.441v48.379c0 1.657 1.343 3 3 3h27.573 15.448 18.825H96.5h27.975c1.657 0 3-1.343 3-3V69.561h5.441c0.908 0 1.767-0.411 2.336-1.118C135.822 67.736 136.041 66.809 135.848 65.922zM72.042 83.811c-7.5 0-13.602 6.102-13.602 13.602v17.527h-8.26V74.978h6.149c0.787 0 1.543-0.31 2.104-0.861l13.548-13.33 13.244 13.308c0.563 0.565 1.328 0.884 2.126 0.884H93.5v39.962h-7.859V97.412C85.641 89.912 79.541 83.811 72.042 83.811zM88.599 68.978L74.13 54.439c-1.164-1.169-3.055-1.178-4.23-0.022L55.102 68.978h-4.921v-0.194l21.896-21.546L93.5 68.765v0.213H88.599zM64.44 97.412c0-3.126 1.898-5.815 4.602-6.982v24.51H64.44V97.412zM75.042 90.431c2.702 1.166 4.6 3.855 4.6 6.981v17.527h-4.6V90.431zM109.348 29.061h4.643v6.946h-4.643V29.061zM30.091 29.061h4.643v6.946h-4.643V29.061zM22.607 69.561h21.573v45.379H22.607V69.561zM121.475 114.939H99.5V69.561h21.975V114.939z" fill="#c8c8c8" data-fill-palette-color="accent"></path><rect x="27.478" y="75.561" width="12.332" height="12.333" fill="#c8c8c8" data-fill-palette-color="accent"></rect><rect x="27.478" y="96.718" width="12.332" height="12.333" fill="#c8c8c8" data-fill-palette-color="accent"></rect><rect x="104.272" y="75.561" width="12.332" height="12.333" fill="#c8c8c8" data-fill-palette-color="accent"></rect><rect x="104.272" y="96.718" width="12.332" height="12.333" fill="#c8c8c8" data-fill-palette-color="accent"></rect></svg></g></svg></g><g></g></svg></g></svg></g></svg></g></svg></g><defs></defs></svg><rect width="320" height="360" fill="none" stroke="none" visibility="hidden"></rect></g></svg></g></svg>